HIERARCHY
ROOT Hips
{
  OFFSET 5.70366 102.999 -1.77653
  CHANNELS 6 Xposition Yposition Zposition Zrotation Xrotation Yrotation
  JOINT RightUpLeg
  {
    OFFSET -8.9458 -8.66707 0.101652
    CHANNELS 3 Zrotation Xrotation Yrotation
    JOINT RightLeg
    {
      OFFSET 0 -44.4227 1.3727
      CHANNELS 3 Zrotation Xrotation Yrotation
      JOINT RightFoot
      {
        OFFSET 0.253549 -42.0924 -1.46059
        CHANNELS 3 Zrotation Xrotation Yrotation
        JOINT RightToes
        {
          OFFSET 0.04 -4.41509 8.4991
          CHANNELS 3 Zrotation Xrotation Yrotation
          End Site
          {
            OFFSET -0.08 -0.137448 9.77979
          }
        }
      }
    }
  }
  JOINT Spine
  {
    OFFSET 0 11.8905 0
    CHANNELS 3 Zrotation Xrotation Yrotation
    JOINT Spine1
    {
      OFFSET 0 25.6574 0.127663
      CHANNELS 3 Zrotation Xrotation Yrotation
      JOINT HEad
      {
        OFFSET 0 8.73416 0.011341
        CHANNELS 3 Zrotation Xrotation Yrotation
        End Site
        {
          OFFSET -0.29 12.7742 2.51395
        }
      }
      JOINT LeftShoulder1
      {
        OFFSET 8.99 -0.362252 -0.22
        CHANNELS 3 Zrotation Xrotation Yrotation
        JOINT LeftArm
        {
          OFFSET 10.2827 -0.00337999 0.322123
          CHANNELS 3 Zrotation Xrotation Yrotation
          JOINT LeftForeArm
          {
            OFFSET 26.2597 0.099144 -1.42434
            CHANNELS 3 Zrotation Xrotation Yrotation
            JOINT LeftHand
            {
              OFFSET 22.0902 0.085362 1.02216
              CHANNELS 3 Zrotation Xrotation Yrotation
              End Site
              {
                OFFSET 13.419 -0.6 1.50291
              }
            }
          }
        }
      }
      JOINT RightShoulder
      {
        OFFSET -8.99 -0.362252 -0.22
        CHANNELS 3 Zrotation Xrotation Yrotation
        JOINT RightArm
        {
          OFFSET -10.2827 -0.00338 0.322123
          CHANNELS 3 Zrotation Xrotation Yrotation
          JOINT RightForeArm
          {
            OFFSET -26.364 0.099144 -1.42434
            CHANNELS 3 Zrotation Xrotation Yrotation
            JOINT RightHand
            {
              OFFSET -22.0324 0.085362 1.02216
              CHANNELS 3 Zrotation Xrotation Yrotation
              End Site
              {
                OFFSET -13.3284 -0.6 1.50291
              }
            }
          }
        }
      }
    }
  }
  JOINT LeftUpLeg
  {
    OFFSET 8.9458 -8.66707 0.101652
    CHANNELS 3 Zrotation Xrotation Yrotation
    JOINT LeftLeg
    {
      OFFSET 0 -44.4227 1.3727
      CHANNELS 3 Zrotation Xrotation Yrotation
      JOINT LeftFoot
      {
        OFFSET -0.253549 -42.0924 -1.46059
        CHANNELS 3 Zrotation Xrotation Yrotation
        JOINT LeftToes
        {
          OFFSET -0.04 -4.41509 8.4991
          CHANNELS 3 Zrotation Xrotation Yrotation
          End Site
          {
            OFFSET 0.08 -0.047448 9.77979
          }
        }
      }
    }
  }
}
MOTION
Frames:	15
Frame Time:	0.0416667
-202.601 104.365 -2.3603 -0.572295 -1.56431 91.0923 1.35111 -6.18359 -0.0929631 -1.78465 12.5609 -2.93301 -4.89267 -3.59477 0.019509 0.0462048 0.000530887 0.662642 0.151594 2.76308 0.266322 -2.01699 -0.765761 0.578957 1.7714 5.66564 2.92827 -7.78977 -0.495 6.90206 0.317217 -42.8926 5.37601 2.01282 -0.702015 -5.14794 0.945151 9.88665 -3.57905 15.6383 0.606486 -1.93654 -6.54461 -37.2447 -17.5837 -6.59325 10.7987 12.3282 2.61882 10.1869 4.28322 -1.68624 -3.51869 1.95722 2.06269 10.5657 20.4894 2.13974 -4.22274 -0.0519888 -1.3288e-009 8.75238e-006 -1.48244e-008 
-202.55 104.356 -2.25696 -0.551085 -1.52522 91.159 1.38234 -6.16265 -0.0850553 -1.78926 12.6443 -3.00815 -5.00097 -3.69639 0.0195112 0.0462048 0.000530887 0.662642 0.271497 2.76135 0.294021 -2.19082 -0.705851 0.638907 2.06724 5.74645 2.82304 -7.69651 -0.469005 6.75148 0.375577 -42.9457 5.33501 2.00631 -0.293002 -5.21773 0.973135 9.88114 -3.69875 15.7187 0.572953 -2.08923 -6.32959 -37.3728 -17.4435 -6.60561 11.0468 12.3926 2.60398 10.1843 4.27035 -1.68991 -3.51278 1.92202 2.10967 10.6495 20.4703 2.11248 -4.26816 -0.0519919 -1.3288e-009 8.75238e-006 -1.48244e-008 
-202.447 104.35 -2.07069 -0.514133 -1.44909 91.2331 1.40216 -6.11298 -0.134059 -1.74409 12.7736 -3.05636 -5.18822 -3.83758 0.0195143 0.0462048 0.000530887 0.662642 0.472566 2.73992 0.34379 -2.4932 -0.556355 0.745753 2.39807 5.52752 2.6122 -7.48423 -0.439699 6.59817 0.166935 -43.0002 5.13365 1.92218 0.0109286 -5.45746 1.11983 9.87019 -3.83472 16.0556 0.477524 -2.52388 -6.00213 -37.5814 -16.8359 -6.48566 11.3189 12.5226 2.46829 10.1709 4.18563 -1.67074 -3.35554 1.92409 2.13068 10.5175 20.4331 2.08 -4.25922 -0.0521176 -1.3288e-009 8.75238e-006 -1.48244e-008 
-202.36 104.348 -1.88736 -0.578642 -1.36535 91.3156 1.39313 -6.14691 -0.208768 -1.67763 12.8284 -3.09651 -5.36079 -3.91875 0.0195162 0.0462048 0.000530887 0.662642 0.486058 2.78506 0.330024 -2.45637 -0.615004 0.728327 2.38646 5.28766 2.82007 -7.59717 -0.458263 6.69954 0.0377604 -43.053 4.88101 1.81875 0.0781216 -5.67716 0.903479 9.88749 -3.96757 16.2105 0.470617 -2.56132 -5.94476 -38.056 -16.6225 -6.43148 11.7748 12.81 2.31252 10.1595 4.24304 -1.6666 -3.24917 1.88857 2.16157 10.2478 20.3906 1.99496 -4.15767 -0.0494768 -1.3288e-009 8.75238e-006 -1.48244e-008 
-202.284 104.347 -1.70256 -0.664979 -1.30244 91.4557 1.44965 -6.18585 -0.175623 -1.681 12.8416 -3.28492 -5.50993 -4.0061 0.0195183 0.0462048 0.000530887 0.662642 0.385386 2.8731 0.26378 -2.17053 -0.752525 0.61154 2.22148 5.1396 2.99773 -7.94149 -0.49035 6.84537 0.0940758 -43.1805 4.67951 1.83646 0.458859 -5.74503 0.524936 9.91849 -4.09769 16.066 0.463534 -2.58548 -5.71285 -39.0896 -16.4418 -6.55662 12.8773 13.2888 2.2578 10.1534 4.45376 -1.63866 -3.34302 1.83556 2.21766 10.3237 20.2618 1.83909 -4.13263 -0.0453203 -1.3288e-009 8.75238e-006 -1.48244e-008 
-202.16 104.348 -1.49349 -0.678806 -1.25087 91.5483 1.56068 -6.17179 -0.0806916 -1.71142 12.966 -3.49123 -5.66428 -4.17287 0.0195223 0.0462048 0.000530887 0.662642 0.483401 2.7483 0.304256 -2.16673 -0.515003 0.653303 2.24772 4.83315 2.59234 -8.10781 -0.494317 6.84113 -0.300018 -43.4871 4.14812 1.99714 1.03761 -5.80405 0.388068 9.93068 -4.29227 16.1412 0.353085 -3.06434 -5.31746 -40.1812 -15.9751 -6.52323 14.1687 13.8946 2.19827 10.1536 4.48978 -1.55678 -3.39301 1.86031 2.23541 10.5413 20.1204 1.68987 -4.21244 -0.0408193 -1.3288e-009 8.75238e-006 -1.48244e-008 
-202.013 104.349 -1.26404 -0.701498 -1.15616 91.619 1.59597 -6.17374 -0.0942868 -1.67937 13.1289 -3.58631 -5.83939 -4.34584 0.0195267 0.0462048 0.000530887 0.662642 0.684899 2.50459 0.435968 -2.36274 -0.156403 0.82692 2.4499 4.53849 2.17153 -8.30758 -0.504911 6.87248 -1.17006 -43.9149 3.02691 2.1465 1.58836 -5.94206 0.259023 9.94357 -4.61663 16.4844 0.303717 -3.28384 -5.36065 -40.7567 -16.1895 -6.3017 14.9649 14.4436 2.20256 10.1587 4.53728 -1.50088 -3.27935 1.88774 2.22545 10.4366 20.0218 1.5376 -4.21239 -0.0366188 -1.3288e-009 8.75238e-006 -1.48244e-008 
-201.898 104.362 -1.00405 -0.741312 -1.01777 91.9044 1.57308 -6.13792 -0.196241 -1.62387 13.1705 -3.81031 -6.02286 -4.47731 0.0175932 0.0462048 0.000530887 0.662642 0.725573 2.39873 0.443684 -2.37253 -0.0616565 0.844336 2.6316 4.43297 1.966 -8.81595 -0.543728 7.0205 -2.07752 -44.233 1.6506 2.07689 2.27814 -6.24944 0.271097 9.94412 -4.87536 16.8087 0.369612 -3.01273 -5.30368 -40.9384 -16.7604 -6.26009 15.4421 14.7126 2.39927 10.1859 4.8897 -1.48067 -3.1764 1.84867 2.22957 10.2323 19.7437 1.38252 -4.09049 -0.0348329 -1.3288e-009 8.75238e-006 -1.48244e-008 
-201.775 104.378 -0.699854 -0.751217 -0.914179 92.3586 1.64362 -6.03472 -0.237215 -1.59117 13.1902 -4.27538 -6.17898 -4.60255 0.0143243 0.0462048 0.000530887 0.662642 0.751396 2.22853 0.333928 -2.32579 0.108092 0.733048 2.81288 4.35784 1.6461 -9.41824 -0.587605 7.17336 -3.33044 -44.3608 0.19556 1.74747 3.00498 -6.95174 0.550355 9.92023 -5.09836 17.2453 0.410191 -2.85683 -4.50906 -40.9566 -16.6407 -6.23459 16.0958 14.8799 2.51132 10.2005 5.04273 -1.38334 -3.09924 1.841 2.22889 10.1165 19.266 1.28065 -3.9694 -0.0330131 -1.3288e-009 8.75238e-006 -1.48244e-008 
-201.613 104.389 -0.354432 -0.797492 -0.868662 92.7597 1.81945 -5.99286 -0.187094 -1.55626 13.3033 -4.79321 -6.31135 -4.728 0.0102297 0.0462048 0.000530887 0.662642 0.881751 1.90012 0.283558 -2.35365 0.448515 0.691054 3.07863 4.3866 1.55569 -10.0729 -0.635757 7.33119 -5.29569 -44.4573 -1.52596 1.39735 4.06161 -7.97827 0.412525 9.9361 -5.70122 17.8443 0.412431 -2.86749 -3.518 -40.8689 -16.4005 -5.86937 17.204 15.3446 2.43218 10.1873 4.8399 -1.19391 -3.03805 1.89883 2.23108 10.0171 18.8712 1.00204 -3.9369 -0.0245414 -1.3288e-009 8.75238e-006 -1.48244e-008 
-201.459 104.396 0.0208982 -0.84711 -0.749093 93.2178 1.9016 -5.95679 -0.204903 -1.48622 13.4046 -5.28382 -6.48822 -4.89117 0.00442189 0.0462048 0.000530887 0.662642 0.877679 1.82235 0.267455 -2.24921 0.495152 0.656099 3.20019 4.46863 1.6817 -10.9302 -0.701595 7.53735 -7.98996 -44.585 -3.66916 1.25523 5.9299 -9.00659 -0.0389836 9.98625 -6.48979 18.5114 0.433958 -2.80385 -2.6266 -40.5996 -16.5754 -5.38839 18.9575 16.0543 2.46854 10.1933 4.93213 -1.06793 -3.03037 1.91082 2.26244 10.0164 18.5254 0.421733 -3.94635 -0.00552069 -1.3288e-009 8.75238e-006 -1.48244e-008 
-201.321 104.393 0.407761 -0.779685 -0.50654 93.861 1.80781 -5.78514 -0.427527 -1.35173 13.4949 -5.75881 -6.73495 -5.15599 -0.00696 0.0462048 0.000530887 0.662642 0.753696 1.98163 0.198521 -2.02287 0.449205 0.554562 3.01184 4.16129 1.26281 -11.959 -0.792238 7.82205 -11.8214 -44.5685 -6.50508 1.18986 7.93084 -9.94326 0.047612 9.98043 -6.88051 19.3901 0.453792 -2.75704 -1.49622 -40.0769 -16.6248 -4.92849 21.6426 16.9764 2.5217 10.2063 5.20338 -1.06574 -2.87284 1.85059 2.28372 9.90444 17.9623 0.11465 -3.84781 0.00378742 -1.3288e-009 8.75238e-006 -1.48244e-008 
-201.171 104.383 0.801871 -0.68749 -0.27488 94.4886 1.71406 -5.60991 -0.722734 -1.17042 13.6588 -6.1863 -7.00265 -5.44494 -0.0206962 0.0462048 0.000530887 0.662642 0.833104 1.93931 0.139253 -1.89867 0.825956 0.488359 2.77398 3.48013 0.643942 -13.3399 -0.927954 8.23042 -16.7917 -44.1935 -10.1496 1.01303 9.74425 -10.7151 0.381144 9.9461 -7.05465 20.4895 0.484128 -2.68271 0.0255685 -39.1173 -16.3974 -4.16921 24.7988 18.3047 2.3447 10.1899 5.19372 -1.04952 -2.57308 1.80611 2.26654 9.54534 17.2592 0.323849 -3.61915 -0.00586722 -1.3288e-009 8.75238e-006 -1.48244e-008 
-201.027 104.375 1.21529 -0.682903 -0.0825508 94.9855 1.69392 -5.52018 -0.915299 -1.0202 13.7622 -6.58106 -7.27476 -5.6625 -0.0306984 0.0462048 0.000530887 0.662642 1.11583 1.7861 0.0959547 -1.94804 1.30307 0.460598 2.66951 2.77516 0.614067 -15.2541 -1.10641 8.67583 -21.9472 -43.1672 -13.9454 0.801525 12.3473 -11.1456 0.408353 9.94432 -7.27281 21.7731 0.525453 -2.58237 2.51751 -36.8617 -15.4792 -3.00781 26.947 19.66 2.10573 10.1664 5.13221 -0.975374 -2.48855 1.78258 2.25583 9.45637 16.6761 0.319138 -3.44797 -0.0065342 -1.3288e-009 8.75238e-006 -1.48244e-008 
-200.882 104.359 1.6514 -0.667391 0.194544 95.442 1.60441 -5.37787 -1.10791 -0.894229 13.7693 -6.90553 -7.59252 -5.89992 -0.0425053 0.0462048 0.000530887 0.662642 1.33041 1.82631 -0.00094251 -2.12653 1.43848 0.397587 2.67777 2.08895 0.625888 -17.2303 -1.27173 8.9877 -26.8284 -41.3756 -17.0251 0.618073 16.3585 -11.2436 0.343933 9.95184 -7.36307 23.481 0.488189 -2.7678 6.51258 -32.8523 -13.1433 -1.96811 27.9609 20.7059 1.86925 10.1421 5.02149 -0.953619 -2.52354 1.74048 2.25204 9.67599 16.2318 -0.165567 -3.43061 0.011234 -1.3288e-009 8.75238e-006 -1.48244e-008 
